<?xml version="1.0" encoding="utf-8"?>
<!-- Generator: Adobe Illustrator 23.0.1, SVG Export Plug-In . SVG Version: 6.00 Build 0)  -->
<svg version="1.1" id="Layer_1" xmlns="http://www.w3.org/2000/svg" xmlns:xlink="http://www.w3.org/1999/xlink" x="0px" y="0px"
	 width="16px" height="16px" viewBox="0 0 16 16" style="enable-background:new 0 0 16 16;" xml:space="preserve">
<style type="text/css">
	.st0{fill:#FEE565;}
	.st1{fill:#FDD62F;}
	.st2{fill:#1D1D1D;}
	.st3{fill:#F37E7F;}
</style>
<circle class="st0" cx="8.0018206" cy="8.0016222" r="7.9981804"/>
<path class="st1" d="M1.3934489,8.7012682c0,2.4565372,1.0114931,4.6653671,2.6525869,6.2548656
	C1.6308248,13.5833483,0,10.982357,0,7.9994092c0-4.4176598,3.5816154-7.9992123,7.9992123-7.9992123
	c0.3509617,0,0.6915274,0.0206633,1.0218248,0.0722585C4.7169623,0.5988655,1.3934489,4.2630081,1.3934489,8.7012682z"/>
<path class="st2" d="M10.5799999,6.967001c0.5699577,0,1.0320005-0.4620419,1.0320005-1.0319996
	s-0.4620419-1.0320005-1.0319996-1.0320005S9.5480003,5.3650427,9.5480003,5.9350004v0.000001
	c-0.0011053,0.5694046,0.4595928,1.0318937,1.0289974,1.032999c0.0013342,0.0000029,0.0026684,0.0000029,0.0040026,0
	L10.5799999,6.967001z M5.4190001,6.967001c0.5699577,0,1.0320001-0.4620419,1.0320001-1.0320005
	C6.4509997,5.3650427,5.9889579,4.9030008,5.4190001,4.9030008S4.3870001,5.3650436,4.3870001,5.9350014l0,0
	C4.3858957,6.504406,4.8465939,6.9668951,5.4159985,6.9679995c0.0010009,0.0000019,0.0020013,0.0000019,0.0030017,0.000001V6.967001
	z"/>
<path class="st3" d="M11.6900005,9.0320015H4.3099999C4.0708766,9.0292301,3.8747828,9.2208328,3.8720117,9.4599552
	C3.8717947,9.4786816,3.872793,9.4974041,3.875,9.5160007c0.2672062,1.9489689,1.9388433,3.3972073,3.9060001,3.3839989h0.4390001
	c1.968154,0.01301,3.6401653-1.4368382,3.9060001-3.3869991c0.028182-0.2374725-0.1414814-0.4528294-0.3789539-0.4810104
	C11.7284479,9.0297832,11.7097273,9.0287838,11.691,9.0290012L11.6900005,9.0320015z"/>
</svg>
