<?xml version="1.0" encoding="UTF-8" standalone="no"?> <svg height="511pt" viewBox="1 -13 511.99927 511" width="511pt" xmlns="http://www.w3.org/2000/svg"><path d="m196.773438 446.320312 272.777343-272.777343-118.710937-92.816407-259.832032 259.828126c-32.703124 32.703124-37.625 82.652343-14.800781 120.570312 37.914063 22.824219 87.863281 17.898438 120.566407-14.804688zm0 0" fill="#ffc66c"/><path d="m484.816406 51.648438-37.929687 37.929687-27.964844-27.964844c-24.078125-24.078125-63.117187-24.078125-87.195313 0-24.074218 24.078125-24.074218 63.113281 0 87.191407l18.359376 18.355468c34.75 34.753906 91.097656 34.753906 125.851562 0 31.480469-31.484375 34.441406-80.691406 8.878906-115.511718zm0 0" fill="#feda9b"/><path d="m146.332031 190.902344c2.632813 0 5.210938-1.070313 7.070313-2.933594 1.863281-1.859375 2.933594-4.4375 2.933594-7.070312 0-2.628907-1.070313-5.210938-2.933594-7.070313-1.859375-1.859375-4.4375-2.929687-7.070313-2.929687-2.628906 0-5.207031 1.070312-7.070312 2.929687-1.859375 1.859375-2.929688 4.429687-2.929688 7.070313 0 2.632812 1.070313 5.210937 2.929688 7.070312 1.863281 1.863281 4.441406 2.933594 7.070312 2.933594zm0 0"/><path d="m483.007812 34.234375-23.445312-23.441406c-3.90625-3.90625-10.234375-3.90625-14.144531 0l-31.585938 31.589843-20.898437-20.894531c-13.53125-13.535156-31.523438-20.988281-50.664063-20.988281-19.136719 0-37.125 7.449219-50.660156 20.976562-.003906.003907-.003906.007813-.007813.011719l-116.394531 116.390625c-3.902343 3.90625-3.902343 10.238282 0 14.144532 1.953125 1.953124 4.515625 2.929687 7.074219 2.929687s5.117188-.976563 7.070312-2.929687l81.328126-81.328126c-.378907 18.832032 6.582031 37.785157 20.917968 52.128907l51.410156 51.40625c18.699219 18.699219 43.558594 28.996093 70 28.996093 4.605469 0 9.164063-.320312 13.648438-.9375l-236.953125 236.960938c-34.5625 34.5625-90.800781 34.5625-125.359375 0l-18.429688-18.429688c-34.5625-34.5625-34.5625-90.800781 0-125.359374l71.035157-71.035157c3.90625-3.90625 3.90625-10.238281 0-14.144531s-10.238281-3.90625-14.144531 0l-71.035157 71.035156c-42.359375 42.359375-42.359375 111.285156 0 153.648438l18.429688 18.425781c21.179687 21.179687 49 31.769531 76.824219 31.769531 27.820312 0 55.640624-10.589844 76.820312-31.769531l279.160156-279.160156c18.699219-18.695313 28.996094-43.554688 28.996094-69.996094s-10.296875-51.300781-28.992188-70zm-177.261718 1.394531c9.753906-9.753906 22.726562-15.128906 36.523437-15.128906s26.765625 5.375 36.523438 15.128906l45.269531 45.269532c5.140625 5.144531 7.976562 11.980468 7.976562 19.25 0 7.273437-2.835937 14.109374-7.976562 19.25-10.613281 10.613281-27.886719 10.617187-38.5 0l-32.929688-32.929688c-6.078124-6.082031-6.078124-15.972656 0-22.050781 3.902344-3.90625 3.902344-10.238281 0-14.140625-1.953124-1.953125-4.515624-2.929688-7.074218-2.929688s-5.117188.976563-7.070313 2.929688c-.011719.011718-.023437.019531-.035156.035156l-43.210937 43.210938c-8.625-19.035157-5.125-42.265626 10.503906-57.894532zm107.261718 147.59375c-21.097656 0-40.933593-8.214844-55.851562-23.136718l-50.097656-50.09375 22.949218-22.949219c1.699219 4.957031 4.527344 9.617187 8.480469 13.570312l32.929688 32.929688c18.414062 18.414062 48.375 18.414062 66.789062 0 8.917969-8.917969 13.832031-20.777344 13.832031-33.394531 0-12.613282-4.914062-24.472657-13.832031-33.390626l-10.230469-10.234374 24.515626-24.515626 16.371093 16.371094c14.917969 14.921875 23.136719 34.757813 23.136719 55.855469s-8.214844 40.933594-23.132812 55.851563c0 0-.003907 0-.003907.003906l-.007812.007812c-14.921875 14.914063-34.753907 23.125-55.847657 23.125zm0 0"/><path d="m232.960938 344.484375 99.171874-99.171875c3.90625-3.90625 3.90625-10.238281 0-14.144531s-10.234374-3.90625-14.144531 0l-99.171875 99.171875c-3.90625 3.90625-3.90625 10.238281 0 14.144531 1.953125 1.953125 4.511719 2.929687 7.070313 2.929687 2.558593 0 5.121093-.976562 7.074219-2.929687zm0 0"/><path d="m196.878906 376.429688c2.628906 0 5.210938-1.070313 7.070313-2.929688 1.859375-1.863281 2.929687-4.441406 2.929687-7.070312 0-2.632813-1.070312-5.210938-2.929687-7.082032-1.859375-1.859375-4.441407-2.921875-7.070313-2.921875-2.632812 0-5.210937 1.0625-7.070312 2.921875-1.859375 1.871094-2.929688 4.449219-2.929688 7.082032 0 2.628906 1.066406 5.207031 2.929688 7.070312 1.859375 1.859375 4.429687 2.929688 7.070312 2.929688zm0 0"/></svg>